PathFileType	4	(X/Y/Z)	C:/Users/beibeiliu/ov580/test_trc/User3\sequence.34_training_dense_right.trc
DataRate	CameraRate	NumFrames	NumMarkers	Units	OrigDataRate	OrigDataStartFrame	OrigNumFrames
120	120	12	19	mm	120	94	250
Frame#	Time	ThumbCMC			ThumbMCP			ThumbIP			ThumbTip			IndexMCP			IndexPIP			IndexTip			MiddleMCP			MiddlePIP			MiddleTip			RingMCP			RingPIP			RingTip			PinkyMCP			PinkyPIP			PinkyTip			BackHand1			BackHand2			BackHand3	
		X0	Y0	Z0	X1	Y1	Z1	X2	Y2	Z2	X3	Y3	Z3	X4	Y4	Z4	X5	Y5	Z5	X6	Y6	Z6	X7	Y7	Z7	X8	Y8	Z8	X9	Y9	Z9	X10	Y10	Z10	X11	Y11	Z11	X12	Y12	Z12	X13	Y13	Z13	X14	Y14	Z14	X15	Y15	Z15	X16	Y16	Z16	X17	Y17	Z17	X18	Y18	Z18	
93	0.775	133.347	14.3472	20.8656	107.508	28.373	-1.6202	83.5486	17.9438	-23.8342	66.0636	-2.30102	-25.5028	124.592	-9.57114	-49.4129	101.957	1.60682	-69.9419	73.1826	15.5262	-59.5812	103.51	-15.3238	-40.9539	76.8688	1.97903	-24.4361	101.771	-3.50658	4.42229	88.9129	-25.2405	-26.6973	72.2248	-10.1395	-10.0092	93.4653	-8.12186	14.7511	81.6659	-37.2651	-13.0652	69.7149	-20.3868	4.34614	93.3078	-25.1656	24.6487	130.128	-50.8447	5.50927	139.494	-43.8612	41.1051	152.69	-20.204	13.3582	
94	0.783333	133.636	14.2676	24.0467	108.697	29.9133	0.659973	82.3612	21.9416	-22.3729	66.8402	-3.60718	-20.9998	121.42	-12.2963	-49.7938	100.665	-4.14543	-72.9888	78.2374	11.2107	-78.6094	98.8698	-14.6814	-41.1777	76.6861	4.76639	-24.4029	101.33	-2.95369	5.01887	85.6936	-25.1535	-26.57	70.5078	-9.55638	-7.52687	92.8974	-10.5453	17.758	83.4616	-35.8128	-11.6761	71.5615	-16.3898	4.40594	96.051	-23.5221	25.7463	127.664	-49.3335	5.82654	136.155	-47.2559	35.2649	154	-19.1172	15.7613	
95	0.791667	134.631	16.9393	21.3527	108.702	31.7869	-0.509723	80.9133	21.7841	-22.1411	69.2581	-1.07121	-18.1027	124.468	-8.9254	-49.1581	104.168	-4.94227	-73.1512	83.7851	5.70046	-85.8754	98.0744	-16.9525	-39.2082	75.9267	6.39806	-26.2658	97.8866	-1.75167	5.19641	88.239	-24.0235	-26.2247	70.921	-6.41398	-8.29385	93.6817	-8.42411	17.0757	81.1936	-33.6201	-12.2645	71.6635	-15.4786	7.50418	93.3893	-22.5005	24.5317	130.571	-47.8307	5.09546	138.067	-47.4355	35.5605	150.397	-21.9528	12.0506	
96	0.8	136.317	17.6992	20.4073	108.718	26.6728	-0.931363	83.9339	22.717	-17.495	67.8701	-0.789804	-17.5205	125.295	-7.68989	-50.7082	110.571	-2.76438	-72.6803	88.5568	-1.40878	-88.0785	96.4072	-10.3988	-41.8086	74.8426	5.10472	-24.8666	97.9996	1.96013	4.96917	87.0071	-25.4044	-24.5921	71.8789	-5.02643	-4.39504	97.445	-4.546	15.8506	78.5824	-37.2505	-11.373	73.7786	-13.182	4.88012	91.5783	-19.5683	25.9765	131.015	-46.0224	6.28285	140.07	-45.1974	33.9124	153.321	-20.0499	15.335	
97	0.808333	135.99	18.7459	20.891	110.164	27.8092	0.70857	83.3134	27.4665	-17.6086	68.1526	0.717915	-16.3639	124.21	-9.53583	-49.4218	108.98	-3.76249	-72.4517	90.2977	0.0528301	-90.2992	96.4007	-8.5121	-41.8682	77.2351	10.1094	-25.5502	100.971	1.03927	6.26385	84.1847	-20.8463	-25.4282	69.7233	-5.98585	-6.3955	93.8849	-7.34789	17.9278	80.9933	-33.1567	-12.0136	70.2386	-14.3518	7.84966	93.2416	-20.9378	27.1132	128.146	-47.2843	4.29718	139.998	-46.7055	33.1942	152.921	-18.9446	12.4663	
98	0.816667	137.397	18.963	24.2856	110.242	32.1845	3.52472	84.8916	25.5803	-14.5859	65.51	2.63217	-17.2875	122.627	-8.73543	-48.9338	107.272	-4.59881	-71.6572	90.9916	3.90672	-93.1065	94.1407	-9.50763	-39.8277	75.5261	11.0405	-20.3675	99.9411	4.64522	6.49911	85.5821	-22.0768	-23.5999	69.763	-3.38807	-6.39497	92.2393	-4.43594	17.6882	77.3308	-35.8636	-10.196	71.8167	-9.78988	5.26868	92.1163	-17.4519	24.4314	129.46	-44.2371	5.66336	138.946	-46.8166	36.6594	152.129	-17.4482	10.1419	
99	0.825	137.81	18.5231	22.6413	110.501	30.6935	3.73962	83.6838	26.5087	-16.6389	64.5289	4.80153	-18.4205	123.403	-4.17301	-49.1391	109.929	0.199187	-70.8826	89.7348	4.59989	-92.1599	95.485	-5.44502	-39.8155	75.705	12.0062	-22.5135	101.192	5.16666	7.0949	83.9193	-18.4142	-23.3195	69.3503	-2.29509	-2.52815	92.7919	-5.64044	19.6349	74.9392	-32.1444	-11.0429	67.355	-12.044	7.87968	91.835	-14.3576	26.1399	125.886	-44.8033	3.87271	137.296	-48.4777	35.9381	150.744	-17.6346	12.4579	
100	0.833333	136.81	17.0648	24.3577	110.725	33.757	3.28189	84.4638	31.2823	-13.4871	68.1059	6.59562	-15.9379	120.977	-5.58282	-48.2735	108.223	1.27152	-73.2547	92.674	4.56404	-89.4713	94.1184	-6.59267	-37.4995	74.3017	12.523	-20.4177	98.7084	5.3979	7.18749	84.0384	-19.0849	-23.1421	69.0961	1.9401	-3.974	95.832	-3.07736	19.4049	77.6479	-31.476	-10.2722	67.7104	-8.97127	2.85635	89.1597	-14.9202	25.8187	127.08	-41.993	5.25194	135.427	-47.8538	35.2231	151.021	-19.486	12.2934	
101	0.841667	136.407	19.0963	20.9584	109.484	30.3512	2.87815	82.3102	30.9152	-16.8666	64.0854	13.0934	-17.254	122.264	-1.6369	-51.2783	109.87	3.5334	-72.1701	91.4059	6.87703	-92.6432	92.0739	-4.7412	-39.0785	74.9882	15.5	-24.095	100.651	5.7551	7.59906	84.1866	-14.7045	-24.9053	68.5635	3.61999	-5.40536	92.7364	1.38562	18.3167	78.6601	-29.6599	-9.91918	67.6012	-7.4973	3.6528	89.1269	-11.8041	24.8783	125.072	-43.1305	8.46041	135.604	-43.927	36.5516	148.579	-20.4535	12.384	
102	0.85	135.18	16.4752	23.0341	109.481	34.2155	4.13137	80.8695	33.4523	-15.1561	64.1446	15.3345	-13.5836	121.457	-3.17294	-48.2538	109.253	1.6785	-71.4135	93.3144	6.99629	-92.5866	92.7436	-5.70938	-39.1389	72.3459	16.0957	-23.07	97.5143	4.09976	7.61697	82.3591	-16.8415	-23.3026	66.4734	5.23642	-7.98695	88.6001	4.39337	18.1473	74.2018	-26.7328	-11.8761	64.7984	-6.73348	2.53146	85.7045	-11.5586	23.4375	123.168	-42.2418	2.88332	134.538	-46.2058	36.998	147.265	-20.8918	12.8065	
103	0.858333	136.816	20.0974	23.5303	108.836	34.4528	5.06469	81.9242	33.1001	-11.4552	60.4596	12.8456	-14.7964	117.727	-4.37456	-50.5573	107.931	4.14268	-75.5592	94.3024	10.3771	-96.2484	89.7896	-6.49663	-38.7459	72.6924	18.817	-25.7027	95.1646	11.8917	4.69135	79.6396	-13.1136	-25.1498	64.1387	5.26859	-8.81847	84.9979	5.13918	17.978	70.3455	-26.5331	-11.4599	62.5434	-4.73991	0.571589	84.3697	-7.53103	23.2436	120.558	-43.4619	4.34582	134.4	-44.629	34.8243	149.409	-17.2028	11.2934	
104	0.866667	134.586	16.716	24.6013	107.699	38.1941	3.26617	80.28	33.8293	-11.074	61.2896	17.7069	-11.4556	120.503	-0.292963	-49.8501	108.209	5.61622	-76.4308	91.7223	8.30628	-94.7055	90.1113	-1.93667	-43.4423	68.7334	18.0677	-29.8713	88.602	13.8006	3.58932	76.8143	-13.3112	-24.8544	63.3257	10.6243	-8.86382	83.3718	5.61559	18.4336	70.7722	-26.6538	-10.7206	59.9183	-3.21009	2.11023	86.1964	-5.09067	23.3071	120.839	-42.4602	6.59945	131.427	-44.516	36.1894	144.14	-19.3819	12.9134	
